<?xml version="1.0" encoding="utf-8"?>
<!-- Generator: Adobe Illustrator 26.5.0, SVG Export Plug-In . SVG Version: 6.00 Build 0)  -->
<svg version="1.1" id="Layer_1" xmlns="http://www.w3.org/2000/svg" fill="currentColor" xmlns:xlink="http://www.w3.org/1999/xlink" x="0px" y="0px"
	 viewBox="0 0 494.1 405.5" style="enable-background:new 0 0 494.1 405.5;" xml:space="preserve">
<path class="st0" d="M222.7,389.6c28.2,13.4,68.3,17.9,107.1,15.1c39.5-2.9,77.4-13.7,100-30c61.4-44.5,69.5-92.4,62.1-140.3
	c-7.8-50.4-47.5-101.8-119.5-110.5c-70.5-8.5-119,21.1-146.1,55.3c-14.1,17.8-19.9,34-26.7,48.2c-6.3,13-13.6,24.1-30.6,32.7
	c-20.5,10.2-43.2,7.7-51.9-9c-0.9-1.7-1.5-3.4-2-5.2c9.6-1.6,17-7.7,22.8-15.8c8-11.1,12.9-26,17.3-34.7
	c6.2-12.5,13.7-19.3,17.8-24.9c3.9-5.4,5.4-10,3.4-15.8c-1.2-3.5-4.2-6.5-8.9-8.2c-8-3-21.7-2.4-35.4,4.3
	c-17.1,8.4-24.9,18-29.8,24.2c-1.2,1.4-2.6,2.9-3.3,3.7c-0.3-0.2-0.6-0.6-0.9-0.9c-1.4-1.6-2.8-3.7-4.5-6.1
	c-5.8-8.1-14.4-19.3-30.1-26.5c-12.5-5.7-29.9-4.6-42.7-1.8c-9.1,1.9-15.9,4.9-17.7,6.4c-1,0.9-1.9,2.2-2.4,4
	c-0.6,2.2-0.7,5.6-0.1,9.8c1.6,11.7,8.5,31,18.2,45.6c12.5,18.8,23.2,24.5,37.8,30.4c14.5,65.2,42.8,100.9,89.7,131.8
	c-0.5,0.7-1,1.4-1.4,2c-3.7,5.9-4.4,11.8-0.4,18.3c3.2,5.2,9.5,10,18.8,12.3c12.5,3,31.2,1.4,55.5-11.7
	C220,391.3,221.3,390.5,222.7,389.6z M153,364.1c-37.4-24.3-62.5-51.5-78.1-95c0.6,1,1.1,2,1.7,3c15.1,26.6,35.7,47.7,56,60.3
	c9.9,6.1,23.9,10.1,36.4,10.4c3.2,0.1,6.2,0,9.2-0.4c-3,3.6-6.7,7.2-11.3,10.7C162,356.9,157.1,360.5,153,364.1z M114.7,235.9
	c0.9-5.7,3.4-11.7,7.5-18.1c1.4-2.3,0.8-5.3-1.5-6.7c-2.2-1.5-5.3-0.8-6.7,1.5c-10.3,16.1-12,31.1-5.7,43c11.1,20.9,39.2,26,65,13.1
	c19.4-9.7,27.8-22.3,35-37.1c6.6-13.7,12.1-29.4,25.7-46.4c25.5-32.1,71.1-59.7,137.3-51.7c66.8,8.1,103.8,55.7,111,102.3
	c1.5,9.8,2.3,19.6,2,29.3c0,0,0,0.1,0,0.1c-23.9,22.7-80.2,49.8-125.8,61.1c-53.2,13.3-101.2,6-101.2,6c-2.1-0.3-4.2,0.8-5.1,2.7
	c0,0-6.5,13.7-16.3,27.1c-6.2,8.6-13.8,17.1-21.9,21.4c-21.4,11.5-37.6,13.5-48.6,10.8c-6.3-1.5-10.7-4.5-12.8-8
	c-2.3-3.8-0.7-7.1,2.2-10.4c4.3-4.9,11.2-9.8,18.1-15.1c15.7-12.1,22.2-24.9,26-36.6c0.8-2.5-0.6-5.3-3.2-6.1
	c-2.5-0.8-5.3,0.6-6.1,3.2c-0.9,2.8-2,5.7-3.4,8.7c-4.3,2.4-10.3,3.3-16.8,3.1c-10.8-0.3-23-3.6-31.5-8.9
	c-19.2-11.9-38.5-31.8-52.6-56.8c-8.6-15.3-14-24.1-13.5-52.6c0.1-2.7-2.1-4.9-4.8-4.9s-4.9,2.1-5,4.8c-0.1,6.8,0.1,12.5,0.5,17.6
	c-0.5-0.7-1.2-1.3-2-1.6c-13-5.2-22.5-10.1-33.6-26.8c-8.8-13.3-15.2-30.9-16.7-41.6c-0.3-2.1-0.2-4.5-0.2-5.4
	c1.9-1.1,6.8-2.6,12.8-3.9c11-2.3,25.9-3.8,36.5,1.1c16.2,7.4,23.6,19.9,28.8,26.9c1.7,2.3,3.2,4.1,4.6,5.4c1.6,1.3,3.2,2,4.7,2.3
	c3.4,0.6,6.6-0.9,10-4.8c4.4-5.1,10.8-15.5,28.8-24.3c9.4-4.5,18.6-5.9,25.1-4.6c1.7,0.3,3.2,0.8,4.3,1.6c0.6,0.4,1.2,0.8,1.4,1.5
	c0.6,1.7,0.2,3-0.6,4.5c-0.8,1.6-2.1,3.2-3.7,5c-4.5,5.5-10.9,12.4-16.5,23.6c-3.6,7.1-7.4,18.3-13,28
	C128.7,226.9,123,233.9,114.7,235.9z M252.2,288.7c-11.7-1.2-21.9,6.7-23.1,17.5c-1.1,10.8,7.3,20.7,19,21.8
	c11.7,1.2,22-6.7,23.1-17.5C272.3,299.8,263.9,289.9,252.2,288.7z M251.6,295.2c7.9,0.8,13.9,7.4,13.2,14.7c-0.8,7.4-8,12.5-16,11.7
	c-8-0.8-14-7.4-13.2-14.7C236.4,299.5,243.6,294.4,251.6,295.2z M303.8,286.7c-6.7-2.9-15,1.5-18.6,9.8c-3.6,8.3-1,17.3,5.8,20.2
	c6.7,2.9,15-1.5,18.6-9.8C313,298.6,310.5,289.5,303.8,286.7z M483.2,278.9c-1.1,7.6-2.9,15.1-5.6,22.6
	c-29.4,25.3-73.8,51.4-119.7,60.5c-49.1,9.7-94.6-0.4-108-3.3c4.3-6.8,7.6-12.9,9.5-16.4c12.3,1.4,54.9,5,101.5-6.6
	C403.6,325.1,455.4,300.8,483.2,278.9z M471.8,314.6c-9.3,17.8-24.4,35.2-47.8,52.1c-21.5,15.5-57.6,25.4-95,28.2
	c-35.1,2.6-71.4-1-98-12.3c4.6-4.4,8.9-9.6,12.7-14.8c0.8-1.1,1.5-2.1,2.2-3.2c7,1,57.9,14.7,113.2,3.8
	C401.3,360,442,337.8,471.8,314.6z M353.9,111.4c1.9,0.3,3.8-0.4,4.8-2c0,0,4.8-7,11.6-12.9c4-3.5,8.7-6.7,13.5-7.1
	c7-0.5,10.6,2.9,14.5,5.8c5.7,4.2,11.6,7.9,22.7,5.2c3.1-0.8,6.3-2.7,9.1-5.9c5.5-6.2,9.2-17.2,5.5-29.5
	c-4.8-16-18.9-23.8-33.3-24.7c1-2.9,1.4-6.2,1.1-9.7c-0.5-9-5.2-19-14.3-25.1c-10.3-6.8-22.3-6.6-32.7-2.4
	c-10.2,4.1-18.6,12-22.1,20c-3.7,8.5-5.4,15.8-4.9,24.1c-10.3-4.8-19.4-7.9-28-7.6c-8.5,0.3-19.2,3.2-26.5,12.1
	c-7.2,8.7-7.9,19.8-4.7,28.5c2.2,6.1,6.4,11,11.5,13.2c10.3,4.6,17.2,2.3,24-1c5-2.4,9.9-5.8,17.3-5.2c4.8,0.4,9.6,3.9,13.8,7.8
	c7.1,6.5,12.3,14.3,12.3,14.3C350,110.9,352,111.7,353.9,111.4z M391,40.9c-2.7,0.4-5.3,1.2-7.8,2.1c-15.4,6-24,19.5-28.3,34
	c-0.7,2.5-1.4,5.7-2.1,8.9c-3.6-7.4-8.7-18.2-10.6-24.4c-4.5-14.6-4.1-23.1,0.9-34.7c2.6-6,9.2-11.8,16.8-14.8
	c7.5-3,16.2-3.5,23.6,1.5c6.4,4.2,9.6,11.3,10.1,17.6c0.2,3.7-0.5,7.2-2.4,9.4C391.1,40.6,391,40.7,391,40.9z M331.4,59
	c0.4,1.7,0.9,3.5,1.6,5.4c1.8,5.8,6.1,15.3,9.7,22.8c-5.8-5.1-12.5-9.3-19-9.8c-7.9-0.6-13.7,1.8-19,4.4c-5.7,2.8-10.7,6.3-19.1,2.6
	c-2.9-1.3-5-4.2-6.3-7.7c-2.1-5.8-1.7-13.2,3.1-19c5.3-6.4,13.2-8.3,19.4-8.5C310.6,49,320.1,53.2,331.4,59z M361.9,90.9
	c0.7-4,1.6-8,2.4-11.1c3.5-11.7,10-22.9,22.4-27.7c13.9-5.4,34.1-1.9,39.4,15.6c2.1,7.3,0.8,13.9-2.1,18.4c-1.5,2.4-3.5,4.2-5.5,4.7
	c-9,2.2-12.7-2.3-17.5-5.7c-4.6-3.3-9.9-6.1-18.1-5.5c-6.7,0.5-13.5,4.5-19.1,9.4C363.2,89.7,362.5,90.2,361.9,90.9z"/>
</svg>
